<svg id="Layer_1" data-name="Layer 1" xmlns="http://www.w3.org/2000/svg" viewBox="0 0 141.73228 141.73228"><defs><style>.cls-1{fill:#46af4b;}.cls-2{fill:#cd2355;}</style></defs><path d="M106.63113,77.79264c-.41024-4.26559-2.32786-8.06058-5.05087-10.06042A12.4731,12.4731,0,0,0,99.236,63.17338a13.98629,13.98629,0,0,0-4.97653-9.40153,5.25459,5.25459,0,0,0,1.15223-1.40372c3.30537-1.47631,5.63585-4.57634,5.90614-6.88189a9.04461,9.04461,0,0,0,2.85707-5.92451,5.66539,5.66539,0,0,0-.50537-2.667,5.06787,5.06787,0,0,0,1.32083-5.23085c-.98691-2.8586-4.44447-4.71411-9.0886-4.91092a7.31913,7.31913,0,0,0-5.06072-1.73283,11.69943,11.69943,0,0,0-2.732.33633,6.21892,6.21892,0,0,0-2.6854-.54386,10.5098,10.5098,0,0,0-5.12326,1.3965,4.70834,4.70834,0,0,0-.61843-.04c-2.30556-.00022-4.61024,1.5885-5.77865,2.53539a17.52,17.52,0,0,0-3.03726,3.16431,17.5247,17.5247,0,0,0-3.037-3.16409c-1.16841-.94689-3.47309-2.53539-5.77843-2.53561a4.71171,4.71171,0,0,0-.61865.04,10.512,10.512,0,0,0-5.123-1.3965,6.21993,6.21993,0,0,0-2.68562.54386,11.69807,11.69807,0,0,0-2.732-.33633,7.3195,7.3195,0,0,0-5.06072,1.73283c-4.64435.19681-8.10191,2.05232-9.08882,4.91114A5.06751,5.06751,0,0,0,38.0626,36.8947a5.66678,5.66678,0,0,0-.50515,2.66725,9.0442,9.0442,0,0,0,2.85707,5.92429c.27029,2.30577,2.60077,5.40558,5.90614,6.88189a5.25313,5.25313,0,0,0,1.152,1.40372,13.98675,13.98675,0,0,0-4.97631,9.40153,12.47132,12.47132,0,0,0-2.34426,4.55884c-2.723,1.99984-4.64063,5.79483-5.05087,10.06021-.40784,4.23978.75532,8.19791,3.12276,10.70509A15.15812,15.15812,0,0,0,40.7983,94.4089a15.38288,15.38288,0,0,0,3.88334,8.9727,15.89664,15.89664,0,0,0,8.56311,5.08871,20.73336,20.73336,0,0,0,6.84866,4.23957,15.88844,15.88844,0,0,0,21.54554,0,20.7383,20.7383,0,0,0,6.84866-4.23957,15.89685,15.89685,0,0,0,8.56289-5.08871,15.38287,15.38287,0,0,0,3.88334-8.97248,15.154,15.154,0,0,0,2.57431-5.9116C105.87559,85.99034,107.03875,82.03221,106.63113,77.79264Z"/><path class="cls-1" d="M79.54707,30.99284a.36619.36619,0,0,1,.46523.389c-.11614,1.09536.54653.95743.70312.76276a5.73784,5.73784,0,0,1,5.18848-2.489.36631.36631,0,0,1,.25057.59072c-.65006.96422.04994,1.14755.3091.97433,2.6551-1.66,5.18783-1.663,6.15992-.96578a.36575.36575,0,0,1,.02178.56857c-.98256.83709-.43252,1.25378-.08551,1.12674,2.69556-.95128,6.41692-.10971,7.71508.98786a.369.369,0,0,1,.00924.55833,7.31178,7.31178,0,0,0-2.81483,4.91021c-.07323.6456.99811.50978,1.4502.39347a.36605.36605,0,0,1,.45607.34184c.04078,1.55182-1.42686,3.2576-3.61049,4.71629-.29244.19535-.25089.6641.4166.68136a.36167.36167,0,0,1,.31059.54477c-.77869,1.4454-1.83767,2.80625-5.44451,3.74075a.36956.36956,0,0,0-.05092.69727.35361.35361,0,0,1,.1151.62482c-3.59117,3.08523-12.69416,1.86895-13.84964-3.3237a.3645.3645,0,0,1,.06548-.29706A34.60305,34.60305,0,0,1,92.42358,35.04066a.287.287,0,0,0-.14216-.55267,24.68482,24.68482,0,0,0-16.39394,9.88334.36969.36969,0,0,1-.46979.10652C69.58267,41.46523,74.37419,32.56972,79.54707,30.99284Z"/><path class="cls-1" d="M45.24011,45.08433a.36164.36164,0,0,1,.31053-.54477c.66755-.01726.7091-.486.41659-.68136-2.18363-1.45869-3.65126-3.16447-3.61042-4.71629a.366.366,0,0,1,.45606-.34184c.452.11631,1.52337.25213,1.45014-.39347a7.31174,7.31174,0,0,0-2.81476-4.91021.36893.36893,0,0,1,.00917-.55833c1.29816-1.09757,5.01953-1.93914,7.71515-.98786.34694.127.897-.28965-.08552-1.12674a.36575.36575,0,0,1,.02172-.56857c.97216-.69727,3.50482-.69425,6.15993.96578.25915.17322.95915-.01011.30916-.97433a.36631.36631,0,0,1,.2505-.59072,5.73787,5.73787,0,0,1,5.18854,2.489c.15653.19467.81927.3326.70312-.76276a.36617.36617,0,0,1,.46517-.389c5.17294,1.57688,9.96447,10.47239,4.12938,13.485a.36971.36971,0,0,1-.46979-.10652A24.68468,24.68468,0,0,0,49.45091,34.488a.287.287,0,0,0-.14216.55267A34.603,34.603,0,0,1,64.40459,46.52641a.36439.36439,0,0,1,.06542.29706c-1.15548,5.19265-10.25847,6.40893-13.84964,3.3237a.35363.35363,0,0,1,.1151-.62482.36957.36957,0,0,0-.05085-.69727C47.07777,47.89058,46.01873,46.52973,45.24011,45.08433Z"/><path class="cls-2" d="M93.85538,60.95854c1.49625,3.98052.33062,5.89437-3.21887,3.868a25.44025,25.44025,0,0,1-7.4547-6.24869c-2.67358-3.17657-.93593-4.59153,3.27564-3.82854A11.36766,11.36766,0,0,1,93.85538,60.95854Z"/><path class="cls-2" d="M77.93513,56.48044c5.076,4.21892-.73974,7.20553-7.069,7.20553s-12.14491-2.98661-7.06893-7.20553a11.286,11.286,0,0,1,14.13793,0Z"/><path class="cls-2" d="M47.877,60.95854a11.36752,11.36752,0,0,1,7.39786-6.20921c4.21157-.763,5.94928.652,3.27564,3.82854a25.44025,25.44025,0,0,1-7.4547,6.24869C47.54633,66.85291,46.3807,64.93906,47.877,60.95854Z"/><path class="cls-2" d="M40.53462,83.07656a11.36377,11.36377,0,0,1,.84359-9.67006c1.87538-3.19087,3.76286-3.06383,4.512-.36063a16.95372,16.95372,0,0,1-.977,11.17431C43.52438,86.98067,41.78739,86.04779,40.53462,83.07656Z"/><path class="cls-2" d="M54.05794,103.74471A11.29678,11.29678,0,0,1,45.5602,93.66234C46.26429,77.2802,69.8744,106.53619,54.05794,103.74471Z"/><path class="cls-2" d="M54.53852,83.34106c-3.95931-2.28589-5.00709-7.88357-2.3402-12.50278s8.03844-6.51068,11.99775-4.22476,5.00708,7.8836,2.34019,12.50277S58.49769,85.627,54.53852,83.34106Z"/><path class="cls-2" d="M77.473,109.99691a11.30654,11.30654,0,0,1-13.21364,0c-3.92316-2.70918.02367-5.82638,6.60682-5.82638S81.39617,107.28773,77.473,109.99691Z"/><ellipse class="cls-2" cx="70.86613" cy="92.18862" rx="9.19022" ry="7.87738"/><path class="cls-2" d="M75.196,79.11629c-2.66689-4.61917-1.61911-10.21689,2.3402-12.50277s9.33086-.39441,11.99774,4.22476S91.153,81.05517,87.19375,83.34106C83.23457,85.627,77.86288,83.73546,75.196,79.11629Z"/><path class="cls-2" d="M87.67432,103.74471C71.85786,106.53619,95.468,77.2802,96.17213,93.66234A11.29678,11.29678,0,0,1,87.67432,103.74471Z"/><path class="cls-2" d="M101.19771,83.07656c-1.25284,2.97123-2.98983,3.90411-4.37865,1.14362a16.9537,16.9537,0,0,1-.977-11.17431c.74909-2.7032,2.63657-2.83024,4.51195.36063A11.36379,11.36379,0,0,1,101.19771,83.07656Z"/></svg>